<svg xmlns="http://www.w3.org/2000/svg" version="1.1" xmlns:xlink="http://www.w3.org/1999/xlink" xmlns:svgjs="http://svgjs.dev/svgjs" width="1000" height="1000" viewBox="0 0 1000 1000"><rect width="1000" height="1000" fill="#ffffff"></rect><g transform="matrix(0.7,0,0,0.7,149.57575757575756,282.1265587044535)"><svg viewBox="0 0 396 247" data-background-color="#ffffff" preserveAspectRatio="xMidYMid meet" height="623" width="1000" xmlns="http://www.w3.org/2000/svg" xmlns:xlink="http://www.w3.org/1999/xlink"><g id="tight-bounds" transform="matrix(1,0,0,1,0.2400000000000091,-0.09999999999999432)"><svg viewBox="0 0 395.52 247.2" height="247.2" width="395.52"><g><svg></svg></g><g><svg viewBox="0 0 395.52 247.2" height="247.2" width="395.52"><g transform="matrix(1,0,0,1,75.54432,72.00110012062726)"><svg viewBox="0 0 244.43135999999998 103.19779975874548" height="103.19779975874548" width="244.43135999999998"><g><svg viewBox="0 0 244.43135999999998 103.19779975874548" height="103.19779975874548" width="244.43135999999998"><g><svg viewBox="0 0 244.43136 103.19779975874549" height="103.19779975874548" width="244.43135999999998"><g><svg viewBox="0 0 244.43136 103.19779975874549" height="103.19779975874549" width="244.43136"><g id="textblocktransform"><svg viewBox="0 0 244.43136 103.19779975874549" height="103.19779975874549" width="244.43136" id="textblock"><g><svg viewBox="0 0 244.43136 103.19779975874549" height="103.19779975874549" width="244.43136"><g transform="matrix(1,0,0,1,0,0)"><svg width="244.43136" viewBox="1.7999999523162842 -34.29999923706055 82.89999389648438 35" height="103.19779975874549" data-palette-color="#000000"><path d="M38.25-6.25L40.8-2.9Q37.65 0.7 33.5 0.7L33.5 0.7Q29.15 0.7 26.18-2.45 23.2-5.6 21.35-12.15L21.35-12.15 20.55-14.65 13.4-14.65 13.4-4.15 19.7-4.15 19.7 0 1.8 0 1.8-4.1 8.25-4.1 8.25-30.15 1.8-30.15 1.8-34.3 21.7-34.3Q27.55-34.3 30.95-31.65 34.35-29 34.35-24.45L34.35-24.45Q34.35-20.7 31.93-18.13 29.5-15.55 25.1-14.9L25.1-14.9 26-12.45Q27.55-8.05 29.45-6.05 31.35-4.05 33.75-4.05L33.75-4.05Q35.25-4.05 36.3-4.65 37.35-5.25 38.25-6.25L38.25-6.25ZM13.4-30.15L13.4-18.55 21.85-18.55Q25.05-18.55 27.15-20.13 29.25-21.7 29.25-24.45L29.25-24.45Q29.25-27.1 27.18-28.63 25.1-30.15 21.85-30.15L21.85-30.15 13.4-30.15ZM84.7-30.15L78.25-30.15 78.25-4.15 84.7-4.15 84.7 0 66.7 0 66.7-4.15 73.05-4.15 73.05-15.45 53.2-15.45 53.2-4.15 59.55-4.15 59.55 0 41.55 0 41.55-4.15 48-4.15 48-30.15 41.55-30.15 41.55-34.3 59.55-34.3 59.55-30.15 53.2-30.15 53.2-19.4 73.05-19.4 73.05-30.15 66.7-30.15 66.7-34.3 84.7-34.3 84.7-30.15Z" opacity="1" transform="matrix(1,0,0,1,0,0)" fill="#000000" class="wordmark-text-0" data-fill-palette-color="primary" id="text-0"></path></svg></g></svg></g></svg></g></svg></g></svg></g></svg></g></svg></g><g><path d="M0 123.6c0-68.262 55.338-123.6 123.6-123.6 44.927 0 84.256 23.97 105.894 59.82l-5.475 0c-21.108-33.165-58.194-55.167-100.419-55.167-65.692 0-118.947 53.254-118.947 118.947 0 65.692 53.254 118.947 118.947 118.947 42.225 0 79.311-22.002 100.419-55.167h5.475c-21.638 35.849-60.967 59.82-105.894 59.82-68.262 0-123.6-55.338-123.6-123.6z" fill="#000000" stroke="transparent" data-fill-palette-color="tertiary"></path></g></svg></g><defs></defs></svg><rect width="395.52" height="247.2" fill="none" stroke="none" visibility="hidden"></rect></g></svg></g></svg>